<svg width="24" height="24" viewBox="0 0 24 24" fill="none" xmlns="http://www.w3.org/2000/svg">
<path fill-rule="evenodd" clip-rule="evenodd" d="M8.03614 1.64189C10.5331 0.191031 13.6023 0.21639 16.0759 1.70831C18.5251 3.23062 20.0137 5.94749 19.9998 8.87008C19.9428 11.7735 18.3466 14.5027 16.3514 16.6125C15.1998 17.8358 13.9116 18.9174 12.513 19.8353C12.3689 19.9186 12.2111 19.9744 12.0474 19.9999C11.8898 19.9932 11.7364 19.9466 11.6009 19.8644C9.46563 18.4851 7.59238 16.7245 6.07124 14.6672C4.79839 12.95 4.07524 10.8753 4 8.72491C3.99835 5.79671 5.53916 3.09274 8.03614 1.64189ZM9.47903 9.93703C9.89906 10.9725 10.8905 11.648 11.9904 11.648C12.711 11.6531 13.4036 11.3645 13.9141 10.8464C14.4245 10.3283 14.7103 9.62372 14.7077 8.88971C14.7115 7.76932 14.0519 6.75706 13.0369 6.32559C12.0218 5.89412 10.8515 6.12853 10.0724 6.91939C9.29324 7.71024 9.05901 8.90153 9.47903 9.93703Z" fill="#70798B"/>
<ellipse opacity="0.4" cx="12" cy="22" rx="6" ry="1" fill="#70798B"/>
</svg>
