<svg width="34" height="34" viewBox="0 0 34 34" fill="none" xmlns="http://www.w3.org/2000/svg">
<path d="M24.2337 0.155457H9.78374C4.13374 0.155457 0.33374 4.12007 0.33374 10.017V23.6266C0.33374 29.5069 4.13374 33.4716 9.78374 33.4716H24.2337C29.8837 33.4716 33.6671 29.5069 33.6671 23.6266V10.017C33.6671 4.12007 29.8837 0.155457 24.2337 0.155457Z" fill="#FD346E"/>
<path d="M15.0223 22.2242C14.649 22.2242 14.2757 22.0826 13.9907 21.7977L10.0357 17.8448C9.46565 17.2751 9.46565 16.3522 10.0357 15.7842C10.6057 15.2145 11.5273 15.2128 12.0973 15.7825L15.0223 18.706L21.9023 11.8296C22.4723 11.2599 23.394 11.2599 23.964 11.8296C24.534 12.3993 24.534 13.3221 23.964 13.8918L16.054 21.7977C15.769 22.0826 15.3957 22.2242 15.0223 22.2242Z" fill="white"/>
</svg>
