<svg width="97" height="150" viewBox="0 0 97 150" fill="none" xmlns="http://www.w3.org/2000/svg">
<path opacity="0.5" d="M84.774 126.214C88.1397 126.214 90.9445 127.336 93.1883 129.58C95.4321 131.824 96.554 134.629 96.554 137.994C96.554 141.22 95.4321 143.919 93.1883 146.093C90.9445 148.267 88.1397 149.354 84.774 149.354H13.2525C9.60632 149.354 6.73143 148.232 4.62786 145.988C2.52429 143.744 1.4725 140.869 1.4725 137.363C1.4725 133.857 2.73464 130.772 5.25893 128.108L51.1168 79.0944C56.1654 73.6251 60.2323 68.0506 63.3176 62.3709C66.4028 56.6913 67.9454 51.3973 67.9454 46.489C67.9454 42.1416 66.8936 38.2149 64.7901 34.709C62.6865 31.203 59.9518 28.3982 56.5861 26.2947C53.2204 24.1911 49.5742 23.1393 45.6475 23.1393C41.5806 23.1393 37.4436 24.5066 33.2365 27.2413C29.0293 29.9759 25.313 33.5871 22.0875 38.0747C20.4047 40.3185 18.7218 41.7209 17.0389 42.2818C15.3561 42.8428 13.8135 43.1233 12.4111 43.1233C9.32584 43.1233 6.48602 41.9663 3.89161 39.6523C1.2972 37.3384 -6.75046e-07 34.6389 0 31.5536C-6.75046e-07 29.1696 0.806369 26.8556 2.41911 24.6118C4.03185 22.368 6.03024 20.0541 8.41429 17.67C13.7433 12.341 19.9138 8.0637 26.9257 4.83821C33.9376 1.61275 40.6691 1.08007e-05 47.12 0C56.6562 0 64.8602 1.96333 71.7318 5.89C78.6035 9.81667 83.9326 15.2158 87.719 22.0875C91.5054 28.9592 93.3987 36.7424 93.3987 45.4372C93.3987 51.3272 92.3118 57.3224 90.1381 63.4227C87.9644 69.5231 84.9843 75.4482 81.1979 81.1979C77.4115 86.9477 73.0641 92.4871 68.1558 97.8162L39.7575 128.108L37.4436 126.214H84.774Z" fill="url(#paint0_linear_14_343)"/>
<defs>
<linearGradient id="paint0_linear_14_343" x1="-6.46675" y1="-4.48061e-06" x2="-6.46677" y2="169.36" gradientUnits="userSpaceOnUse">
<stop stop-color="#ABAFC7"/>
<stop offset="1" stop-color="white" stop-opacity="0.01"/>
</linearGradient>
</defs>
</svg>
