<svg width="73" height="72" viewBox="0 0 73 72" fill="none" xmlns="http://www.w3.org/2000/svg">
<rect x="0.5" width="72" height="72" rx="15" fill="#ffffff"/>
<path d="M24.6255 32.2004C24.9971 32.4124 26.1172 33.042 27.9859 34.0889C29.8546 35.1358 31.2861 35.9418 32.2806 36.5071C32.3899 36.5691 32.622 36.7038 32.9771 36.9114C33.3323 37.1192 33.6274 37.2871 33.8622 37.4151C34.0972 37.5432 34.3813 37.6868 34.7147 37.8458C35.0481 38.0046 35.3623 38.1241 35.6573 38.2032C35.9525 38.2829 36.2256 38.3224 36.4769 38.3224H36.4934H36.5099C36.7612 38.3224 37.0345 38.2829 37.3296 38.2032C37.6246 38.1241 37.9391 38.0044 38.2722 37.8458C38.6054 37.6866 38.8895 37.5431 39.1245 37.4151C39.3595 37.2871 39.6543 37.1192 40.0096 36.9114C40.3647 36.7036 40.5971 36.5691 40.7063 36.5071C41.7115 35.9418 44.2689 34.5061 48.3777 32.2001C49.1754 31.7498 49.8419 31.2063 50.3773 30.5702C50.9131 29.9343 51.1807 29.2673 51.1807 28.5694C51.1807 27.9862 50.921 27.487 50.4018 27.0718C49.8828 26.6565 49.268 26.449 48.5579 26.449H24.4288C23.5874 26.449 22.9398 26.6786 22.4863 27.138C22.0329 27.5974 21.8062 28.1717 21.8062 28.8607C21.8062 29.4173 22.1068 30.0205 22.7077 30.6698C23.3086 31.3191 23.9481 31.8294 24.6255 32.2004Z" fill="#6001D3"/>
<path d="M49.5413 33.6181C45.9572 35.5793 43.2358 37.1034 41.3783 38.1902C40.7554 38.5611 40.2501 38.8507 39.8621 39.0581C39.474 39.2658 38.9579 39.4778 38.313 39.6941C37.6684 39.9108 37.0676 40.0188 36.5102 40.0188H36.4935H36.477C35.9197 40.0188 35.3185 39.9108 34.6739 39.6941C34.0293 39.4778 33.5128 39.2658 33.1249 39.0581C32.737 38.8507 32.2316 38.5611 31.6087 38.1902C30.1334 37.3156 27.4178 35.7914 23.4619 33.6181C22.8389 33.2826 22.287 32.898 21.8062 32.4652V42.9872C21.8062 43.5706 22.0629 44.0696 22.5765 44.4848C23.0901 44.9002 23.7076 45.1078 24.4289 45.1078H48.5581C49.2792 45.1078 49.8967 44.9002 50.4103 44.4848C50.9241 44.0694 51.1807 43.5707 51.1807 42.9872V32.4652C50.7107 32.8891 50.1645 33.2736 49.5413 33.6181Z" fill="#6001D3"/>
</svg>
