<svg width="96" height="150" viewBox="0 0 96 150" fill="none" xmlns="http://www.w3.org/2000/svg">
<path opacity="0.5" d="M15.1457 117.59C16.4079 117.59 17.7752 117.8 19.2477 118.221C20.7202 118.642 22.368 119.483 24.1911 120.745C26.5751 122.568 29.415 124.181 32.7106 125.583C36.0062 126.986 39.8276 127.687 44.175 127.687C48.5224 127.687 52.6244 126.6 56.4809 124.426C60.3375 122.253 63.5279 119.167 66.0522 115.171C68.5765 111.174 69.8386 106.371 69.8386 100.761C69.8386 95.4321 68.7518 91.0146 66.5781 87.5086C64.4044 84.0027 61.5295 81.3382 57.9534 79.5151C54.3774 77.692 50.5559 76.7804 46.489 76.7804C43.4037 76.7804 40.8444 77.0609 38.8109 77.6218C36.7775 78.1828 34.8141 78.7788 32.9209 79.4099C31.0277 80.041 28.819 80.3565 26.2947 80.3565C23.0692 80.3565 20.58 79.2346 18.827 76.9908C17.074 74.747 16.1975 72.0824 16.1975 68.9972C16.1975 67.0339 16.5832 65.2809 17.3545 63.7383C18.1258 62.1956 19.2828 60.5128 20.8254 58.6897L57.8483 18.3011L63.5279 23.1393H11.78C8.41429 23.1393 5.60953 22.0174 3.36572 19.7736C1.12191 17.5298 0 14.725 0 11.3593C0 8.13383 1.12191 5.43424 3.36572 3.26054C5.60953 1.08685 8.41429 1.08007e-05 11.78 0H76.1493C80.4967 0 83.7573 1.19202 85.931 3.57608C88.1046 5.96015 89.1915 8.97527 89.1915 12.6214C89.1915 14.4445 88.7357 16.1975 87.8242 17.8804C86.9126 19.5632 85.6855 21.176 84.1429 22.7186L46.9097 63.7383L41.23 56.5861C42.7727 55.8849 44.9113 55.2538 47.6459 54.6929C50.3806 54.1319 52.6594 53.8515 54.4825 53.8515C62.7566 53.8515 69.9438 55.9901 76.0442 60.2674C82.1445 64.5446 86.8425 70.084 90.1381 76.8856C93.4337 83.6871 95.0815 91.0146 95.0815 98.8679C95.0815 109.246 92.7676 118.221 88.1397 125.794C83.5118 133.367 76.9908 139.186 68.5765 143.253C60.1622 147.32 50.3455 149.354 39.1265 149.354C33.9376 149.354 28.8189 148.723 23.7704 147.46C18.7218 146.198 14.3744 144.515 10.7282 142.412C7.64298 140.729 5.57447 138.871 4.52268 136.837C3.4709 134.804 2.945 132.876 2.945 131.053C2.945 127.827 4.10197 124.777 6.4159 121.902C8.72983 119.027 11.6398 117.59 15.1457 117.59Z" fill="url(#paint0_linear_14_344)"/>
<defs>
<linearGradient id="paint0_linear_14_344" x1="-14.6237" y1="0" x2="-14.6237" y2="195.295" gradientUnits="userSpaceOnUse">
<stop stop-color="#ABAFC7"/>
<stop offset="1" stop-color="white" stop-opacity="0.01"/>
</linearGradient>
</defs>
</svg>
