<svg width="63" height="154" viewBox="0 0 63 154" fill="none" xmlns="http://www.w3.org/2000/svg">
<path opacity="0.5" d="M47.6518 153.01C43.5715 153.01 40.2199 151.735 37.5968 149.185C34.9738 146.635 33.6623 143.465 33.6623 139.677V29.5092L36.7225 34.318L20.1099 44.373C17.9241 45.6845 15.5925 46.3403 13.1152 46.3403C9.32635 46.3403 6.19328 44.9195 3.71597 42.0779C1.23866 39.2362 0 36.2125 0 33.0065C0 28.0519 2.25872 24.2631 6.77617 21.64L39.7827 1.96728C42.26 0.655767 45.3931 0 49.1819 0C52.9707 0 56.0674 1.27509 58.4718 3.82528C60.8763 6.37545 62.0785 9.54494 62.0785 13.3338V139.677C62.0785 143.465 60.7305 146.635 58.0346 149.185C55.3387 151.735 51.8778 153.01 47.6518 153.01Z" fill="url(#paint0_linear_14_339)"/>
<defs>
<linearGradient id="paint0_linear_14_339" x1="-5.65118" y1="-3.06021e-05" x2="-5.65133" y2="180.868" gradientUnits="userSpaceOnUse">
<stop stop-color="#ABAFC7"/>
<stop offset="1" stop-color="white" stop-opacity="0.01"/>
</linearGradient>
</defs>
</svg>
