<svg width="16" height="23" viewBox="0 0 16 23" fill="none" xmlns="http://www.w3.org/2000/svg">
<path fill-rule="evenodd" clip-rule="evenodd" d="M4.03614 1.64189C6.53312 0.191031 9.60232 0.21639 12.0759 1.70831C14.5251 3.23062 16.0137 5.94749 15.9998 8.87008C15.9428 11.7735 14.3466 14.5027 12.3514 16.6125C11.1998 17.8358 9.91156 18.9174 8.51296 19.8353C8.36892 19.9186 8.21114 19.9744 8.04741 19.9999C7.88983 19.9932 7.73636 19.9466 7.60086 19.8644C5.46563 18.4851 3.59238 16.7245 2.07124 14.6672C0.798386 12.95 0.0752398 10.8753 0 8.72491C-0.00165201 5.79671 1.53916 3.09274 4.03614 1.64189ZM5.47903 9.93703C5.89906 10.9725 6.89048 11.648 7.99039 11.648C8.71096 11.6531 9.40363 11.3645 9.91406 10.8464C10.4245 10.3283 10.7103 9.62372 10.7077 8.88971C10.7115 7.76932 10.0519 6.75706 9.03686 6.32559C8.02178 5.89412 6.85147 6.12853 6.07235 6.91939C5.29323 7.71024 5.05901 8.90153 5.47903 9.93703Z" fill="#011A61"/>
<ellipse opacity="0.4" cx="8" cy="22" rx="6" ry="1" fill="#011A61"/>
</svg>
