<svg width="124" height="80" viewBox="0 0 124 80" fill="none" xmlns="http://www.w3.org/2000/svg">
<path d="M4.21766 71.6819H6.3056C7.26606 71.6819 8.143 71.3907 8.8529 70.8501C9.27049 71.3491 9.89687 71.6819 10.6068 71.6819H12.5694C12.6112 71.6819 12.653 71.6819 12.653 71.6403V69.3112H12.6112V55.0456C12.6112 52.7166 10.7321 50.8034 8.39355 50.8034H4.21766C1.87915 50.8034 0 52.7166 0 55.0456V59.1631C0 59.2047 0 59.2463 0.041759 59.2463C2.38026 59.2463 4.30117 57.3747 4.30117 55.0456V52.9661C4.30117 51.8432 5.17811 50.9697 6.3056 50.9697C7.39134 50.9697 8.31004 51.8432 8.31004 52.9661V59.6206C7.72541 59.2879 7.01551 59.0799 6.3056 59.0799H4.21766C1.87915 59.0799 0 60.9931 0 63.3222V67.4812C0 69.8103 1.87915 71.6819 4.21766 71.6819ZM4.30117 61.2426C4.30117 60.1613 5.17811 59.2463 6.3056 59.2463C7.01551 59.2463 7.72541 59.4542 8.31004 59.787V69.3112C8.31004 69.8519 8.47707 70.3094 8.76938 70.7253C8.05948 71.2244 7.2243 71.5571 6.3056 71.5571C5.17811 71.5571 4.30117 70.6421 4.30117 69.5607V61.2426Z" fill="#011A61"/>
<path d="M19.4832 71.6819H21.4041C21.4458 71.6819 21.4876 71.6819 21.4876 71.6403V69.3112C21.4876 69.3112 21.4876 69.3112 21.4876 69.2696V59.2463H23.5338C24.6195 59.2879 25.4965 60.1613 25.4965 61.2426V67.4812C25.4965 69.8103 27.4174 71.7235 29.7559 71.7235C29.7976 71.7235 29.7976 71.6819 29.7976 71.6403V63.3222C29.7976 61.2842 28.3361 59.5374 26.4152 59.1631C28.3361 58.7888 29.7976 57.0836 29.7976 55.0456V50.8866C29.7976 50.845 29.7976 50.8034 29.7559 50.8034C27.4174 50.8034 25.4965 52.7166 25.4965 55.0456V57.1252C25.4965 58.2065 24.6195 59.0799 23.5338 59.0799H21.4876V44.8975C21.4876 43.5666 20.4436 42.5269 19.1909 42.5269H17.2699C17.1864 42.5269 17.1864 42.5269 17.1864 42.5684V69.3112C17.1864 70.6421 18.2304 71.6819 19.4832 71.6819Z" fill="#011A61"/>
<path d="M36.6288 80H38.5497C38.5915 80 38.6332 79.9584 38.6332 79.9168V71.1828C39.2179 71.5155 39.9278 71.6819 40.6377 71.6819H42.7256C45.0641 71.6819 46.985 69.8103 46.985 67.4812V55.0456C46.985 52.7166 45.0641 50.8034 42.7256 50.8034H40.6377C39.6772 50.8034 38.8003 51.1361 38.0904 51.6768C37.6728 51.1361 37.0464 50.8034 36.3365 50.8034H34.4156C34.3738 50.8034 34.3321 50.845 34.3321 50.8866V53.1741C34.3321 53.1741 34.3321 53.1741 34.3321 53.2156V77.5877C34.3321 78.9186 35.3343 80 36.6288 80ZM40.6377 50.9697C41.7652 50.9697 42.6421 51.8432 42.6421 52.9661V69.5607C42.6421 70.6421 41.7652 71.5571 40.6377 71.5571C39.9278 71.5571 39.2179 71.3491 38.6332 71.0164V53.2156C38.6332 52.675 38.4662 52.1759 38.1739 51.8016C38.8838 51.2609 39.719 50.9697 40.6377 50.9697Z" fill="#011A61"/>
<path d="M53.8152 71.6819H55.7362C55.7779 71.6819 55.8197 71.6819 55.8197 71.6403V69.3112C55.8197 69.3112 55.8197 69.3112 55.8197 69.2696V51.4688C56.4043 51.1361 57.1142 50.9697 57.8241 50.9697C58.9098 50.9697 59.8285 51.8432 59.8285 52.9245V69.3112C59.8285 70.6421 60.8725 71.6819 62.1253 71.6819H64.088C64.1297 71.6819 64.1297 71.6819 64.1297 71.6403V55.004C64.1297 52.675 62.2506 50.8034 59.9121 50.8034H57.8241C57.1142 50.8034 56.4043 50.9697 55.8197 51.3025V44.8975C55.8197 43.5666 54.7757 42.5269 53.5229 42.5269H51.602C51.5185 42.5269 51.5185 42.5269 51.5185 42.5684V69.3112C51.5185 70.6421 52.5625 71.6819 53.8152 71.6819Z" fill="#011A61"/>
<path d="M72.8818 71.6819H74.9697C75.9302 71.6819 76.8071 71.3907 77.517 70.8501C77.9346 71.3491 78.561 71.6819 79.2709 71.6819H81.2336C81.2754 71.6819 81.3171 71.6819 81.3171 71.6403V69.3112H81.2753V55.0456C81.2753 52.7166 79.3962 50.8034 77.0577 50.8034H72.8818C70.5433 50.8034 68.6641 52.7166 68.6641 55.0456V59.1631C68.6641 59.2047 68.6641 59.2463 68.7059 59.2463C71.0444 59.2463 72.9653 57.3747 72.9653 55.0456V52.9661C72.9653 51.8432 73.8423 50.9697 74.9697 50.9697C76.0555 50.9697 76.9742 51.8432 76.9742 52.9661V59.6206C76.3895 59.2879 75.6796 59.0799 74.9697 59.0799H72.8818C70.5433 59.0799 68.6641 60.9931 68.6641 63.3222V67.4812C68.6641 69.8103 70.5433 71.6819 72.8818 71.6819ZM72.9653 61.2426C72.9653 60.1613 73.8423 59.2463 74.9697 59.2463C75.6796 59.2463 76.3895 59.4542 76.9742 59.787V69.3112C76.9742 69.8519 77.1412 70.3094 77.4335 70.7253C76.7236 71.2244 75.8884 71.5571 74.9697 71.5571C73.8423 71.5571 72.9653 70.6421 72.9653 69.5607V61.2426Z" fill="#011A61"/>
<path d="M85.8506 69.3112C85.8506 70.6421 86.8528 71.6819 88.1473 71.6819H90.0682C90.11 71.6819 90.1517 71.6819 90.1517 71.6403V53.2156C90.1517 52.675 89.9847 52.1759 89.6924 51.8016C90.4023 51.2609 91.2375 50.9697 92.1562 50.9697C93.2837 50.9697 94.1606 51.8432 94.1606 52.9661V55.0456C94.1606 57.3747 96.0815 59.2463 98.42 59.2463C98.4618 59.2463 98.5035 59.2047 98.5035 59.1631V55.0456C98.5035 52.7166 96.5826 50.8034 94.2441 50.8034H92.1562C91.1957 50.8034 90.3188 51.1361 89.6089 51.6768C89.1913 51.1361 88.5649 50.8034 87.855 50.8034H85.8923C85.8506 50.8034 85.8506 50.845 85.8506 50.8866V69.3112Z" fill="#011A61"/>
<path d="M124 55.004C124 52.675 122.079 50.8034 119.741 50.8034H117.694C116.442 50.8034 115.314 51.3441 114.562 52.1759C113.769 51.3441 112.642 50.8034 111.431 50.8034H109.343C108.382 50.8034 107.505 51.1361 106.795 51.6768C106.378 51.1361 105.751 50.8034 105.041 50.8034H103.121C103.037 50.8034 103.037 50.845 103.037 50.8866V69.3112C103.037 70.6421 104.081 71.6819 105.334 71.6819H107.255C107.296 71.6819 107.338 71.6819 107.338 71.6403V69.3112C107.338 69.3112 107.338 69.3112 107.338 69.2696V53.2156C107.338 52.675 107.171 52.1759 106.879 51.8016C107.589 51.2609 108.424 50.9697 109.343 50.9697C110.428 50.9697 111.347 51.8432 111.347 52.9245V69.3112C111.347 70.6421 112.391 71.6819 113.644 71.6819H115.606C115.648 71.6819 115.648 71.6819 115.648 71.6403V55.004C115.648 53.9643 115.272 53.0493 114.646 52.3006C115.398 51.4688 116.483 50.9697 117.694 50.9697C118.78 50.9697 119.657 51.8432 119.657 52.9245V69.3112C119.657 70.6421 120.701 71.6819 121.996 71.6819H123.916C123.958 71.6819 124 71.6819 124 71.6403V55.004Z" fill="#011A61"/>
<path d="M50.9466 8.68408C68.2196 20.4324 62.0802 30.6005 58.1483 36.3441C57.486 30.3532 56.2444 24.6783 53.4989 19.5942C55.3062 28.4844 56.0098 33.8296 55.9822 36.6052C48.5322 31.7685 42.8895 26.4233 50.9466 8.68408Z" fill="#011A61"/>
<path d="M35.4395 31.3016C48.8909 25.8191 52.4641 33.2528 54.3128 37.7185C50.574 35.8086 46.7938 34.352 42.7791 33.9948C48.6563 36.3444 52.0364 37.9933 53.6368 39.0651C47.9665 41.5384 42.6963 42.7614 35.4395 31.3016Z" fill="#011A61"/>
<path d="M85.9066 36.674C75.5318 46.8147 69.4062 41.2772 65.9985 37.8145C70.1926 38.1718 74.2349 38.1031 78.0979 36.9213C71.7654 36.9488 68.0128 36.7015 66.1227 36.303C70.4272 31.906 74.842 28.8006 85.9066 36.674Z" fill="#011A61"/>
<path d="M87.1895 0C92.8046 29.996 75.8903 34.1731 65.8327 36.0419C71.3926 29.1715 76.0144 22.0126 78.484 13.9193C71.1029 24.9806 66.2466 31.2464 63.3494 34.077C60.6315 21.3805 60.3694 10.0307 87.1895 0Z" fill="#011A61"/>
</svg>
