<svg width="124" height="81" viewBox="0 0 124 81" fill="none" xmlns="http://www.w3.org/2000/svg">
<path d="M4.21766 71.9721H6.3056C7.26606 71.9721 8.143 71.6798 8.8529 71.1369C9.27049 71.638 9.89688 71.9721 10.6068 71.9721H12.5694C12.6112 71.9721 12.653 71.9721 12.653 71.9303V69.5918H12.6112V55.2685C12.6112 52.93 10.7321 51.0091 8.39355 51.0091H4.21766C1.87915 51.0091 0 52.93 0 55.2685V59.4026C0 59.4444 0 59.4861 0.041759 59.4861C2.38026 59.4861 4.30117 57.607 4.30117 55.2685V53.1805C4.30117 52.053 5.17811 51.1761 6.3056 51.1761C7.39134 51.1761 8.31004 52.053 8.31004 53.1805V59.862C7.72541 59.5279 7.01551 59.3191 6.3056 59.3191H4.21766C1.87915 59.3191 0 61.24 0 63.5785V67.7544C0 70.0929 1.87915 71.9721 4.21766 71.9721ZM4.30117 61.4906C4.30117 60.4048 5.17811 59.4861 6.3056 59.4861C7.01551 59.4861 7.72541 59.6949 8.31004 60.029V69.5918C8.31004 70.1347 8.47707 70.594 8.76938 71.0116C8.05948 71.5127 7.2243 71.8468 6.3056 71.8468C5.17811 71.8468 4.30117 70.9281 4.30117 69.8424V61.4906Z" fill="white"/>
<path d="M19.4832 71.9721H21.4041C21.4458 71.9721 21.4876 71.9721 21.4876 71.9303V69.5918C21.4876 69.5918 21.4876 69.5918 21.4876 69.5501V59.4861H23.5338C24.6195 59.5279 25.4965 60.4048 25.4965 61.4906V67.7544C25.4965 70.0929 27.4174 72.0138 29.7559 72.0138C29.7976 72.0138 29.7976 71.9721 29.7976 71.9303V63.5785C29.7976 61.5323 28.3361 59.7785 26.4152 59.4026C28.3361 59.0268 29.7976 57.3147 29.7976 55.2685V51.0926C29.7976 51.0508 29.7976 51.0091 29.7559 51.0091C27.4174 51.0091 25.4965 52.93 25.4965 55.2685V57.3564C25.4965 58.4422 24.6195 59.3191 23.5338 59.3191H21.4876V45.0793C21.4876 43.743 20.4436 42.699 19.1909 42.699H17.2699C17.1864 42.699 17.1864 42.699 17.1864 42.7408V69.5918C17.1864 70.9281 18.2304 71.9721 19.4832 71.9721Z" fill="white"/>
<path d="M36.6288 80.3239H38.5497C38.5915 80.3239 38.6332 80.2821 38.6332 80.2403V71.471C39.2179 71.805 39.9278 71.9721 40.6377 71.9721H42.7256C45.0641 71.9721 46.985 70.0929 46.985 67.7544V55.2685C46.985 52.93 45.0641 51.0091 42.7256 51.0091H40.6377C39.6772 51.0091 38.8003 51.3431 38.0904 51.886C37.6728 51.3431 37.0464 51.0091 36.3365 51.0091H34.4156C34.3738 51.0091 34.3321 51.0508 34.3321 51.0926V53.3893C34.3321 53.3893 34.3321 53.3893 34.3321 53.4311V77.9018C34.3321 79.2381 35.3343 80.3239 36.6288 80.3239ZM40.6377 51.1761C41.7652 51.1761 42.6421 52.053 42.6421 53.1805V69.8424C42.6421 70.9281 41.7652 71.8468 40.6377 71.8468C39.9278 71.8468 39.2179 71.638 38.6332 71.3039V53.4311C38.6332 52.8882 38.4662 52.3871 38.1739 52.0113C38.8838 51.4684 39.719 51.1761 40.6377 51.1761Z" fill="white"/>
<path d="M53.8152 71.9721H55.7362C55.7779 71.9721 55.8197 71.9721 55.8197 71.9303V69.5918C55.8197 69.5918 55.8197 69.5918 55.8197 69.5501V51.6772C56.4043 51.3431 57.1142 51.1761 57.8241 51.1761C58.9098 51.1761 59.8285 52.053 59.8285 53.1388V69.5918C59.8285 70.9281 60.8725 71.9721 62.1253 71.9721H64.088C64.1297 71.9721 64.1297 71.9721 64.1297 71.9303V55.2267C64.1297 52.8882 62.2506 51.0091 59.9121 51.0091H57.8241C57.1142 51.0091 56.4043 51.1761 55.8197 51.5102V45.0793C55.8197 43.743 54.7757 42.699 53.5229 42.699H51.602C51.5185 42.699 51.5185 42.699 51.5185 42.7408V69.5918C51.5185 70.9281 52.5625 71.9721 53.8152 71.9721Z" fill="white"/>
<path d="M72.8818 71.9721H74.9697C75.9302 71.9721 76.8071 71.6798 77.517 71.1369C77.9346 71.638 78.561 71.9721 79.2709 71.9721H81.2336C81.2754 71.9721 81.3171 71.9721 81.3171 71.9303V69.5918H81.2753V55.2685C81.2753 52.93 79.3962 51.0091 77.0577 51.0091H72.8818C70.5433 51.0091 68.6641 52.93 68.6641 55.2685V59.4026C68.6641 59.4444 68.6641 59.4861 68.7059 59.4861C71.0444 59.4861 72.9653 57.607 72.9653 55.2685V53.1805C72.9653 52.053 73.8423 51.1761 74.9697 51.1761C76.0555 51.1761 76.9742 52.053 76.9742 53.1805V59.862C76.3895 59.5279 75.6797 59.3191 74.9697 59.3191H72.8818C70.5433 59.3191 68.6641 61.24 68.6641 63.5785V67.7544C68.6641 70.0929 70.5433 71.9721 72.8818 71.9721ZM72.9653 61.4906C72.9653 60.4048 73.8423 59.4861 74.9697 59.4861C75.6797 59.4861 76.3895 59.6949 76.9742 60.029V69.5918C76.9742 70.1347 77.1412 70.594 77.4335 71.0116C76.7236 71.5127 75.8885 71.8468 74.9697 71.8468C73.8423 71.8468 72.9653 70.9281 72.9653 69.8424V61.4906Z" fill="white"/>
<path d="M85.8506 69.5918C85.8506 70.9281 86.8528 71.9721 88.1473 71.9721H90.0682C90.11 71.9721 90.1517 71.9721 90.1517 71.9303V53.4311C90.1517 52.8882 89.9847 52.3871 89.6924 52.0113C90.4023 51.4684 91.2375 51.1761 92.1562 51.1761C93.2837 51.1761 94.1606 52.053 94.1606 53.1805V55.2685C94.1606 57.607 96.0815 59.4861 98.42 59.4861C98.4618 59.4861 98.5035 59.4444 98.5035 59.4026V55.2685C98.5035 52.93 96.5826 51.0091 94.2441 51.0091H92.1562C91.1957 51.0091 90.3188 51.3431 89.6089 51.886C89.1913 51.3431 88.5649 51.0091 87.855 51.0091H85.8923C85.8506 51.0091 85.8506 51.0508 85.8506 51.0926V69.5918Z" fill="white"/>
<path d="M124 55.2267C124 52.8882 122.079 51.0091 119.741 51.0091H117.694C116.442 51.0091 115.314 51.5519 114.562 52.3871C113.769 51.5519 112.642 51.0091 111.431 51.0091H109.343C108.382 51.0091 107.505 51.3431 106.795 51.886C106.378 51.3431 105.751 51.0091 105.041 51.0091H103.121C103.037 51.0091 103.037 51.0508 103.037 51.0926V69.5918C103.037 70.9281 104.081 71.9721 105.334 71.9721H107.255C107.296 71.9721 107.338 71.9721 107.338 71.9303V69.5918C107.338 69.5918 107.338 69.5918 107.338 69.5501V53.4311C107.338 52.8882 107.171 52.3871 106.879 52.0113C107.589 51.4684 108.424 51.1761 109.343 51.1761C110.428 51.1761 111.347 52.053 111.347 53.1388V69.5918C111.347 70.9281 112.391 71.9721 113.644 71.9721H115.606C115.648 71.9721 115.648 71.9721 115.648 71.9303V55.2267C115.648 54.1828 115.272 53.2641 114.646 52.5124C115.398 51.6772 116.483 51.1761 117.694 51.1761C118.78 51.1761 119.657 52.053 119.657 53.1388V69.5918C119.657 70.9281 120.701 71.9721 121.996 71.9721H123.916C123.958 71.9721 124 71.9721 124 71.9303V55.2267Z" fill="white"/>
<path d="M50.9463 8.71912C68.2193 20.515 62.08 30.7243 58.148 36.4911C57.4858 30.4759 56.2441 24.7781 53.4987 19.6734C55.306 28.5996 56.0096 33.9664 55.982 36.7533C48.532 31.897 42.8893 26.5302 50.9463 8.71912Z" fill="white"/>
<path d="M35.4395 31.4279C48.8909 25.9232 52.4641 33.387 54.3128 37.8708C50.574 35.9531 46.7938 34.4907 42.7791 34.132C48.6563 36.4912 52.0364 38.1467 53.6368 39.2228C47.9665 41.7062 42.6963 42.9341 35.4395 31.4279Z" fill="white"/>
<path d="M85.9066 36.8223C75.5318 47.004 69.4062 41.4441 65.9985 37.9674C70.1926 38.3261 74.2349 38.2572 78.0979 37.0707C71.7654 37.0983 68.0128 36.8499 66.1227 36.4498C70.4272 32.035 74.842 28.917 85.9066 36.8223Z" fill="white"/>
<path d="M87.1897 0C92.8048 30.1174 75.8905 34.3115 65.833 36.1878C71.3929 29.2896 76.0147 22.1017 78.4842 13.9757C71.1032 25.0817 66.2469 31.3729 63.3496 34.2149C60.6317 21.4671 60.3696 10.0713 87.1897 0Z" fill="white"/>
</svg>
