<svg width="73" height="72" viewBox="0 0 73 72" fill="none" xmlns="http://www.w3.org/2000/svg">
<g clip-path="url(#clip0_14_154)">
<rect opacity="0.1" x="-0.5" y="-1" width="73.5" height="73.5" rx="15" fill="#FD346E"/>
<path d="M40.0806 27.8487V26.981C40.0507 25.0661 38.4948 23.5103 36.5799 23.5103C34.6649 23.5103 33.1091 25.0661 33.0792 27.011V27.8487C30.0272 29.2251 28.0525 32.277 28.0525 35.6281V38.4706H45.1073V35.7777C45.1073 32.3967 43.1325 29.3149 40.0806 27.8487Z" fill="#FD346E"/>
<path d="M45.9153 39.9667H27.2448C26.1078 41.0737 25.4795 42.5698 25.4795 44.1855V44.9036C25.4795 45.4421 25.9283 45.861 26.437 45.861H32.3612C32.8998 48.1948 35.2037 49.631 37.5375 49.1224C39.1532 48.7633 40.4398 47.4767 40.7989 45.861H46.7231C47.2617 45.861 47.6806 45.4122 47.6806 44.9036V44.1855C47.7105 42.5698 47.0523 41.0737 45.9153 39.9667Z" fill="#FD346E"/>
</g>
<defs>
<clipPath id="clip0_14_154">
<rect width="72" height="72" fill="white" transform="translate(0.5)"/>
</clipPath>
</defs>
</svg>
