<svg width="73" height="72" viewBox="0 0 73 72" fill="none" xmlns="http://www.w3.org/2000/svg">
<rect opacity="0.1" x="0.5" width="72" height="72" rx="15" fill="#FCDC00"/>
<path fill-rule="evenodd" clip-rule="evenodd" d="M49.0016 23.5103H24.4719C21.3854 23.5103 18.8674 26.0282 18.8674 29.1147V42.3136C18.8674 45.3595 21.3854 47.8775 24.4719 47.8775H49.0422C52.0881 47.8775 54.606 45.3595 54.606 42.273V29.1147C54.606 26.0282 52.0881 23.5103 49.0016 23.5103ZM40.2698 31.6733H46.3616C46.9708 31.6733 47.4987 32.1606 47.4987 32.8104C47.4987 33.4602 47.0114 33.9475 46.3616 33.9475H40.2698C39.6606 33.9475 39.1327 33.4602 39.1327 32.8104C39.1327 32.1606 39.6606 31.6733 40.2698 31.6733ZM35.559 35.6939C35.559 38.9023 33.0004 41.5014 29.7921 41.5014C26.5837 41.542 23.9439 38.9429 23.9439 35.7345C23.9033 32.5262 26.5025 29.8864 29.7109 29.8864C32.9192 29.8458 35.5184 32.445 35.559 35.6533V35.6939ZM46.8083 39.7145H40.2698C39.6606 39.7145 39.1327 39.2271 39.1327 38.5773C39.1327 37.9276 39.62 37.4402 40.2698 37.4402H46.8083C47.4175 37.4402 47.9455 37.9276 47.9455 38.5773C47.9455 39.2271 47.4175 39.7145 46.8083 39.7145Z" fill="#FCDC00"/>
</svg>
