<svg width="75" height="74" viewBox="0 0 75 74" fill="none" xmlns="http://www.w3.org/2000/svg">
<rect opacity="0.1" x="0.5" width="72" height="72" rx="15" fill="#6001D3"/>
<path d="M51.5106 31.1081C51.3337 30.6837 50.98 30.33 50.5556 30.1531L38.177 24.8834C37.7172 24.7065 37.222 24.7065 36.7623 24.8834L24.3836 30.1885C23.464 30.5775 23.0396 31.6386 23.4287 32.5581C23.6055 32.9825 23.9592 33.3362 24.3836 33.5131L36.7623 38.7828C37.222 38.9597 37.7172 38.9597 38.177 38.7828L50.5556 33.4777C51.4752 33.0887 51.8996 32.0276 51.5106 31.1081Z" fill="#6001D3"/>
<path d="M51.7237 41.7888C51.4054 40.8339 50.3797 40.3034 49.4248 40.6217C49.3187 40.6571 49.2126 40.6924 49.1065 40.7632L37.4352 45.7147L25.7639 40.7632C24.8443 40.3741 23.7833 40.7986 23.3942 41.7181C23.0052 42.6377 23.4296 43.6987 24.3492 44.0877L36.7278 49.3575C37.1876 49.5343 37.6828 49.5343 38.1425 49.3575L50.5212 44.0524C51.5115 43.7694 52.042 42.7438 51.7237 41.7888Z" fill="#6001D3"/>
<path d="M51.5113 36.4483C51.1223 35.4933 50.0612 35.0689 49.1417 35.458L37.4704 40.4448L25.799 35.458C24.8795 35.0689 23.8184 35.4933 23.4294 36.4129C23.0404 37.3324 23.4648 38.3935 24.3843 38.7825L36.763 44.0877C37.2228 44.2645 37.7179 44.2645 38.1777 44.0877L50.5564 38.8179C51.4759 38.4288 51.9004 37.3678 51.5113 36.4483Z" fill="#6001D3"/>
</svg>
