<svg width="20" height="15" viewBox="0 0 20 15" fill="none" xmlns="http://www.w3.org/2000/svg">
<mask id="mask0_1438_83" style="mask-type:alpha" maskUnits="userSpaceOnUse" x="0" y="0" width="20" height="15">
<rect width="20" height="15" fill="white"/>
</mask>
<g mask="url(#mask0_1438_83)">
<path fill-rule="evenodd" clip-rule="evenodd" d="M0 10H20V15H0V10Z" fill="#14DC5A"/>
<path fill-rule="evenodd" clip-rule="evenodd" d="M0 0H20V6.25H0V0Z" fill="#0099B5"/>
<path d="M-1.25 5.78125H-1.71875V6.25V10V10.4688H-1.25H21.25H21.7188V10V6.25V5.78125H21.25H-1.25Z" fill="#F7FCFF" stroke="#C51918" stroke-width="0.9375"/>
<path fill-rule="evenodd" clip-rule="evenodd" d="M10.4546 1.50052L9.84042 1.84895L10.0158 1.14081L9.42749 0.620438H10.1959L10.4537 -0.0496826L10.7559 0.620438H11.411L10.8962 1.14081L11.1437 1.84895L10.4546 1.50052ZM7.30596 3.422L7.92014 3.07357L8.60928 3.422L8.36179 2.71386L8.8765 2.19349H8.22142L7.91921 1.52337L7.66148 2.19349H6.89304L7.48137 2.71386L7.30596 3.422ZM5.61034 4.72069L4.99616 5.06912L5.17157 4.36098L4.58324 3.84061H5.35168L5.60941 3.17049L5.91162 3.84061H6.5667L6.05199 4.36098L6.29948 5.06912L5.61034 4.72069ZM7.95551 4.72341L7.34133 5.07184L7.51674 4.3637L6.92841 3.84332H7.69685L7.95458 3.1732L8.25679 3.84332H8.91187L8.39716 4.3637L8.64465 5.07184L7.95551 4.72341ZM10.4555 4.72341L9.84133 5.07184L10.0167 4.3637L9.4284 3.84332H10.1969L10.4546 3.1732L10.7568 3.84332H11.4119L10.8972 4.3637L11.1446 5.07184L10.4555 4.72341ZM9.80596 3.422L10.4201 3.07357L11.1093 3.422L10.8618 2.71386L11.3765 2.19349H10.7214L10.4192 1.52337L10.1615 2.19349H9.39304L9.98137 2.71386L9.80596 3.422ZM12.3413 5.07184L12.9555 4.72341L13.6446 5.07184L13.3972 4.3637L13.9119 3.84332H13.2568L12.9546 3.1732L12.6969 3.84332H11.9284L12.5167 4.3637L12.3413 5.07184ZM12.9201 3.07357L12.306 3.422L12.4814 2.71386L11.893 2.19349H12.6615L12.9192 1.52337L13.2214 2.19349H13.8765L13.3618 2.71386L13.6093 3.422L12.9201 3.07357ZM12.3404 1.84895L12.9546 1.50052L13.6437 1.84895L13.3962 1.14081L13.911 0.620438H13.2559L12.9537 -0.0496826L12.6959 0.620438H11.9275L12.5158 1.14081L12.3404 1.84895ZM15.4555 4.72341L14.8413 5.07184L15.0167 4.3637L14.4284 3.84332H15.1969L15.4546 3.1732L15.7568 3.84332H16.4119L15.8972 4.3637L16.1446 5.07184L15.4555 4.72341ZM14.806 3.422L15.4201 3.07357L16.1093 3.422L15.8618 2.71386L16.3765 2.19349H15.7214L15.4192 1.52337L15.1615 2.19349H14.393L14.9814 2.71386L14.806 3.422ZM15.4546 1.50052L14.8404 1.84895L15.0158 1.14081L14.4275 0.620438H15.1959L15.4537 -0.0496826L15.7559 0.620438H16.411L15.8962 1.14081L16.1437 1.84895L15.4546 1.50052ZM3.67807 5.15034C3.67807 5.15034 2.16816 4.74082 2.19659 3.22614C2.22503 1.71146 3.75 1.31821 3.75 1.31821C3.12689 1.08224 1.28447 1.39887 1.25046 3.21078C1.21644 5.0227 3.09746 5.37965 3.67807 5.15034Z" fill="#F7FCFF"/>
</g>
</svg>
