<svg width="108" height="69" viewBox="0 0 108 69" fill="none" xmlns="http://www.w3.org/2000/svg">
<path d="M101.031 15.0133C102.547 10.914 109.318 12.6243 107.652 16.6856C104.129 26.2003 102.787 35.9462 104.909 45.9263C105.466 48.7884 102.372 52.1686 99.5158 50.1667C89.5574 43.3294 78.8754 39.9911 68.236 34.5826C66.0929 33.5611 67.005 29.9497 69.3761 30.0684C77.3179 30.3135 85.4784 33.4951 92.8089 37.4276C83.2112 21.5573 62.5583 6.50841 43.732 8.79654C32.4737 10.2749 22.3514 21.3936 17.5099 31.0557C15.2024 35.7553 13.4587 40.7574 12.6179 45.9875C11.6251 51.8195 12.4015 57.6182 11.5972 63.3377C10.5268 70.1106 4.49802 70.1874 2.44026 65.0255C-2.79838 52.1771 3.79608 33.6735 10.7489 22.6238C18.1927 10.8977 29.9242 0.574788 44.6039 0.760948C64.2523 0.921511 88.2745 13.552 97.3006 32.3193C97.503 26.4477 98.7968 20.6917 101.031 15.0133Z" fill="#FD346E"/>
</svg>
